<svg viewBox="0 0 1200 1200" xmlns="http://www.w3.org/2000/svg" id="图层_1"><defs><style>.cls-1{fill:#f7f8f8;}.cls-2{fill:#231815;}.cls-3{fill:#898989;}.cls-4{fill:#f9ad73;}.cls-5{fill:#ff7e78;}.cls-6{fill:#fff;}.cls-7{fill:none;}.cls-8{fill:#dcdddd;}.cls-9{fill:#036eb8;stroke:#231815;stroke-miterlimit:10;}.cls-10{fill:#f8b62d;}.cls-11{opacity:0.17;}.cls-12{fill:#ebfffe;}</style></defs><path d="M601.79,35c-247,0-447.25,200.24-447.25,447.26A445.15,445.15,0,0,0,222,718.56h752.5a11.79,11.79,0,0,1,6.06,1.66,445,445,0,0,0,68.5-238C1049.05,235.24,848.8,35,601.79,35ZM888.44,614a12,12,0,0,1-12,12H326.09a12,12,0,0,1-12-12V373.83a12,12,0,0,1,12-12H876.44a12,12,0,0,1,12,12Z" class="cls-1"></path><path d="M601.79,23A459.5,459.5,0,0,0,169,636.16a466.52,466.52,0,0,0,30.84,68.39q4.42,8,9.18,15.82c3.21,5.27,6.18,9.81,13,10.19.38,0,.76,0,1.15,0,21,.5,42.06,0,63.05,0H971.58c.71,0,2.28-.3,2.91,0,5.92,3,12.81,1.45,16.42-4.31A459.16,459.16,0,0,0,625,23.59c-7.73-.4-15.46-.58-23.19-.59-15.45,0-15.47,24,0,24A436.2,436.2,0,0,1,1003,313c4.72,11.13,10.2,26.16,14.25,39.13q6.54,21,11,42.52a425.61,425.61,0,0,1,8.8,86.91A435.16,435.16,0,0,1,983.7,691.22q-6.42,11.67-13.51,22.94l16.41-4.31c-9.18-4.67-20.4-3.29-30.43-3.29H253c-9.86,0-19.86-.48-29.71,0-.42,0-.85,0-1.27,0l10.36,5.94a436.09,436.09,0,0,1-38.7-381.94,430.53,430.53,0,0,1,36.6-75.16A420.63,420.63,0,0,1,280,189.16,435.08,435.08,0,0,1,414.39,89.25C465,64.92,523,50.34,579.3,47.55c7.49-.37,15-.54,22.49-.55C617.23,47,617.26,23,601.79,23Z" class="cls-2"></path><path d="M876.44,614c.09-1.74-.34,1.8.2-.23.09-.33-1.18,1.2.39,0-2.11,1.55-.8.19-.68.19h-.91c-1.6,0-3.21,0-4.81,0H362.17c-11.85,0-23.92.66-35.76,0h-.27c1.46,0-1.85-.34.19.2.3.09-1.29-1.27-.05.39-.41-.54-.19-1.79-.19-.6,0-.15,0-.29,0-.43-.11-2.38,0-4.79,0-7.17V374.88c0-.57-.31-1.57-.15-.43-.07-.52.93-1.85.16-.61-.12.2-1,1,0,0s.2-.15,0,0c-1.24.77.09-.23.61-.15,0,0-.92.17-.52.15s.66,0,1,0c4.47,0,8.93,0,13.39,0H872.69c1.16,0,2.33-.07,3.48,0h.27c-.93,0-.8-.84.59.18,0,0-1.21-.5-1-.6.67-.38,1.2,1.63.45.43-.48-.78.42-1.17.16.61,0,.15-.16-.84-.15-.6s0,.35,0,.52c.33,7.44,0,15,0,22.43V614c0,15.44,24,15.47,24,0V436.69c0-20.89.87-42,0-62.86-.56-13.49-10.69-23.48-24.15-24-1.08,0-2.16,0-3.24,0H361.65c-11.77,0-23.64-.46-35.4,0-13.47.52-23.59,10.51-24.16,24-.06,1.66,0,3.34,0,5V609.31c0,1.56,0,3.14,0,4.7a24.54,24.54,0,0,0,24.2,24c3.55.12,7.13,0,10.68,0H873.23c1,0,2,0,3.06,0,13.58-.52,23.42-10.51,24.15-24,.35-6.48-5.77-12-12-12C881.65,602,876.79,607.51,876.44,614Z" class="cls-2"></path><rect rx="11.91" height="181.25" width="23.81" y="179.76" x="134.95" class="cls-3"></rect><rect transform="matrix(0.87, -0.5, 0.5, 0.87, -190.6, 197.09)" rx="52.26" height="141.84" width="104.56" y="383.3" x="220.19" class="cls-4"></rect><path d="M301.24,504.17a26.6,26.6,0,0,1-7,3.16,51.54,51.54,0,0,1-5.23,1.38c-.87.18-1.75.35-2.64.48,1.9-.28-.32,0-1.11,0-1.77.08-3.53.13-5.3.07-.64,0-4.73-.39-2.39-.08a47.69,47.69,0,0,1-11.43-3.06c1.8.73-1.72-.88-2.23-1.14-1.57-.83-3.07-1.75-4.56-2.72-.22-.14-2.44-1.72-1.36-.91s-1-.89-1.26-1.06a51.3,51.3,0,0,1-4.34-4.26,50.28,50.28,0,0,1-5.73-8.48l-14.45-25c-5.29-9.16-8.16-15.63-8.06-24.95,0-1.54.11-3.08.26-4.62-.21,2.18,0,0,.06-.39.18-.87.33-1.73.53-2.59.39-1.71.87-3.4,1.42-5.07.28-.83.58-1.66.91-2.48-.77,1.92.36-.71.54-1.05.82-1.57,1.64-3.11,2.59-4.61.47-.76,1-1.48,1.48-2.22,1.24-1.82-1.06,1.22.35-.5a52.37,52.37,0,0,1,3.64-4c.49-.48,1-.95,1.48-1.4,0,0,3.1-2.54,1.57-1.39,6.05-4.56,10-6.16,16.88-7.6.87-.18,1.76-.35,2.64-.48-2.15.31.08,0,.45,0,1.77-.06,3.53-.19,5.3-.14.87,0,5.16.38,3.05.1a46,46,0,0,1,5.8,1.21c1.71.46,3.37,1,5,1.62,2.07.76-1.52-.75.48.2.59.28,1.19.56,1.78.87a36.29,36.29,0,0,1,8.27,5.44,35.13,35.13,0,0,1,8.69,10.79c4.52,7.76,9,15.55,13.47,23.33,1.59,2.75,3.21,5.48,4.77,8.25a38.61,38.61,0,0,1,5.15,19.24,40.2,40.2,0,0,1-4.63,18.62,38.47,38.47,0,0,1-14.89,15.38c-14.67,8.73-1.33,31.69,13.4,22.92,16.27-9.69,28.24-26.06,31.49-44.84,2.84-16.37-.35-32.17-8.63-46.51-12.18-21.08-22.67-45.91-46.07-56.69a67.07,67.07,0,0,0-56.76,0c-16.83,7.72-29.61,23.59-34.59,41.3a66.74,66.74,0,0,0,6.48,50.78c4.85,8.59,9.87,17.09,14.8,25.63,7.9,13.69,17.37,25.79,32.15,32.58,19.56,9,42.34,8.56,61.13-2.29C329.43,518.55,316.08,495.6,301.24,504.17Z" class="cls-2"></path><rect transform="matrix(0.5, -0.87, 0.87, 0.5, 65.65, 1022.14)" rx="52.26" height="104.56" width="141.84" y="401.94" x="847.1" class="cls-4"></rect><path d="M875.85,527.09c31.93,18.43,72.21,6,90.38-25.27,12-20.72,28.36-42.34,26.48-67.52a67,67,0,0,0-27.28-49.49c-15.14-11.17-35-14.61-53.22-10.45-17.51,4-32.58,15.63-41.67,31-4.91,8.3-9.65,16.71-14.47,25.07-7.84,13.57-14,27.59-12.74,43.73a66.88,66.88,0,0,0,32.52,53c14.71,8.76,28.08-14.18,13.4-22.92A40.67,40.67,0,0,1,876,491.65c-.95-1.5-1.77-3-2.59-4.62-.31-.58-.59-1.19-.86-1.79.81,1.84-.05-.19-.15-.5-.55-1.67-1.12-3.32-1.55-5-.22-.85-.41-1.71-.59-2.57,0-.17-.55-4.21-.31-1.69a60.85,60.85,0,0,1,0-9.92c.16-2.24-.34,1.77,0-.45.15-.88.32-1.76.52-2.64.44-2,1.07-3.91,1.66-5.86.07-.22.88-2.36.18-.67.35-.84.78-1.69,1.2-2.51s.92-1.73,1.41-2.59,1-1.73,1.5-2.6L891,423c1.56-2.7,3.1-5.37,4.8-8,1.42-2.18.8-1.13.41-.63.56-.71,1.17-1.4,1.78-2.07a51.12,51.12,0,0,1,3.84-3.81,34.6,34.6,0,0,1,7.68-5.13c9.79-5.19,23.72-5.95,33.55-1.13,6.76,3.31,9.74,5.63,14.7,11.26,1.75,2,.75.95.4.47.52.71,1,1.45,1.5,2.19q1.44,2.23,2.66,4.59c.4.78.79,1.58,1.14,2.38-.25-.57-.65-2,.16.5.62,1.88,1.24,3.74,1.7,5.67,2.33,9.63.75,19.59-4.74,29.17-4.55,8-9.15,15.86-13.73,23.79-1.67,2.9-3.29,5.85-5.05,8.7-.49.8-1,1.57-1.52,2.35l-.8,1.13c.53-.68.52-.68-.05,0a53.39,53.39,0,0,1-4.19,4.45c-.65.61-1.33,1.2-2,1.79l-1,.85c.75-.58.75-.6,0-.07-1.65,1.13-3.32,2.2-5.07,3.16a40.14,40.14,0,0,1-18.62,4.63c-.88,0-1.77,0-2.65-.07-.11,0-4.27-.42-1.78-.07a46.25,46.25,0,0,1-5.92-1.28,27,27,0,0,1-8.91-3.74C874.42,495.61,861,518.54,875.85,527.09Z" class="cls-2"></path><path d="M994.51,613.34a120,120,0,0,1-120,120c-35,0-63.72,1-85.66-22.95-42.91,36.08-101,41.89-161.07,41.89H559.58c-56.85,0-106.55-3.53-148.38-36.18-21.53,20.57-53.54,17.24-85.66,17.24A120,120,0,0,1,312.85,494v-135c0-135.7,111-246.73,246.73-246.73h68.15c135.7,0,246.73,111,246.73,246.73V493.3A120.06,120.06,0,0,1,994.51,613.34Z" class="cls-4"></path><path d="M982.51,613.34a99.93,99.93,0,0,1-2.7,24.16,105.21,105.21,0,0,1-8,22.84c-7.49,15.17-16.62,26.38-29.68,37.31-11.49,9.63-26.86,17-42.22,20.73-16.54,4-35.34,3.54-53.5,2.66-19-.91-35.76-4.82-49.14-19.09-4.72-5-12.11-4-17,0-43.12,35.86-103,38.38-156.49,38.38-38.09,0-76.76,1.58-114.72-1.76-33.2-2.92-65-12.08-91.84-32.78-4.26-3.29-11-1.42-14.54,1.88-10.36,9.61-24.31,12.63-38.1,13.5a355.21,355.21,0,0,1-48.17-.12c-24.76-1.85-49.44-13.43-67.32-31.3-18-18.06-29.62-43-31.35-68-1.87-27.08,5.54-53,22.35-74.73a111.42,111.42,0,0,1,31.27-27.19,95.81,95.81,0,0,1,19.79-9q5.51-1.82,11.18-3.08A95,95,0,0,1,312.85,506c6.45-.72,12-4.92,12-12V423.46c0-24.52-.73-49.17.17-73.68a229.3,229.3,0,0,1,12.86-67.84,208.8,208.8,0,0,1,13.35-30.79,248.26,248.26,0,0,1,18-29.28c25.28-35.28,63-65,103.27-80.91A237.45,237.45,0,0,1,540,125c13.49-1.07,27.06-.78,40.59-.78,34,0,68-1.5,100.18,6.07a236.38,236.38,0,0,1,177.64,185,213.82,213.82,0,0,1,3.9,34.54c.16,4.23.17,8.45.17,12.67V493.3a12.19,12.19,0,0,0,12,12,108.31,108.31,0,0,1,62.82,20.07c16.66,11.7,31.26,30.55,38.3,49.7a106.76,106.76,0,0,1,6.93,38.27c.09,15.44,24.09,15.48,24,0a133.66,133.66,0,0,0-86.77-124,131.64,131.64,0,0,0-45.28-8l12,12V420.14c0-25.9,1.19-52.17-.57-78C882.54,293,865.22,245,835.64,205.5a264.5,264.5,0,0,0-115.1-87.93A255.54,255.54,0,0,0,648,101c-14-1.16-28.15-.84-42.21-.84-35.93,0-71.7-1.25-107,7.25A260.06,260.06,0,0,0,374.07,179c-33.84,34.93-57.94,79.47-67.75,127.17-6.13,29.79-5.47,59.67-5.47,89.85V494l12-12c-32,3.53-61.91,17.6-83.89,41.34a133.2,133.2,0,0,0-35.43,87.18c-1.47,64.21,46.31,123.07,110.15,133a196.92,196.92,0,0,0,28.5,1.91c10.29.1,20.59.39,30.87-.17,20.87-1.12,41-6.07,56.64-20.62l-14.54,1.87c46.37,35.8,105.64,37.82,161.78,37.82,42.85,0,86.3,1.79,128.84-4,37.06-5.05,72.47-17.25,101.51-41.4h-17c15,16,34.63,23.08,56,25.37,10.5,1.12,21.09,1.11,31.63,1.11A173.72,173.72,0,0,0,899.68,743c37.72-7,71.48-31.79,90.1-65.24a134,134,0,0,0,16.73-64.37C1006.6,597.9,982.6,597.88,982.51,613.34Z" class="cls-2"></path><ellipse ry="37.17" rx="69.45" cy="595.34" cx="386.02" class="cls-5"></ellipse><ellipse ry="37.17" rx="69.45" cy="587.57" cx="809.77" class="cls-5"></ellipse><path d="M707.44,793.78c11-7.12,28.25-2.48,41.91-6.48a360,360,0,0,1,55.11-11.75q5.7-.74,11.51-1.24,6.42-.59,13-.84a212.46,212.46,0,0,1,53.63,4.24c.84.18,1.68.37,2.51.57a145.3,145.3,0,0,1,35.85,13.3,126.91,126.91,0,0,1,15.56,9.85c38.23,28.31,49.57,72,29.9,110l-91.3,273.78H272.47L193.15,911.45c-19.67-38-8.32-81.71,29.91-110a125.86,125.86,0,0,1,19.09-11.67,147.58,147.58,0,0,1,34.82-12q5-1.1,10.13-1.9c23-3.66,46.49-3.06,68.62-.18,4.11.53,8.18,1.15,12.19,1.83h0q2.81.48,5.57,1a374.09,374.09,0,0,1,36.7,8.84" class="cls-1"></path><path d="M712.76,802.88c5.84-3.51,13.36-2.92,20-3.1a106.17,106.17,0,0,0,25.84-4.15A323.76,323.76,0,0,1,815,784.94c36.8-3.36,76,0,108,20,25.09,15.66,43.58,41.86,42.31,71.88-.57,13.38-6.8,25.1-11,37.77L926.7,997.17l-38.76,116.24-15,45c-2.54,7.62-5.57,15.24-7.67,23-.09.34-.23.69-.34,1l10.17-7.74h-578c-7.79,0-15.76-.5-23.54,0-.35,0-.7,0-1,0l10.16,7.74-15.32-52.89-31.8-109.77-27-93.1c-1.71-5.92-3.17-12-5.16-17.83-1.33-3.89-3.52-7.45-4.89-11.34a72.61,72.61,0,0,1-4.1-18.65,70.06,70.06,0,0,1,7.25-36.74c14.19-28.19,43-45.48,72.81-53,17.95-4.52,36.49-5.8,54.95-5.15a265.81,265.81,0,0,1,27,2.3c9.88,1.37,15,2.33,25.3,4.6,8.63,1.9,17.18,4.13,25.66,6.6,13.06,3.8,18.63-16.54,5.61-20.34-8.78-2.56-17.63-4.85-26.57-6.79-4.59-1-9.2-2-13.83-2.72-1.56-.26-3.12-.44-4.67-.7.37.06,2.21.28.2,0-2.61-.44-5.23-.81-7.84-1.18-19.8-2.72-39.79-3.88-59.73-2.09-35.8,3.2-71.58,15.28-97.48,41.13-22.18,22.13-33.48,52.51-28.64,83.66A90.33,90.33,0,0,0,181,910.25a32.56,32.56,0,0,0,2.07,4.58c.92,1.43.08-.12-.07-.54.06.17.09.33.14.5.72,2.27,1.33,4.57,2,6.86l24.26,83.75,33.25,114.76c6.44,22.24,12.29,44.77,19.36,66.82.11.35.2.7.3,1a10.77,10.77,0,0,0,10.17,7.74H801c24.29,0,48.73.81,73,0h1.06a10.82,10.82,0,0,0,10.16-7.74L905,1128.82l39.48-118.38L974,921.82c.78-2.36,1.5-4.76,2.36-7.09.05-.14.09-.29.15-.44-1,2.44-.1.55.24-.12a84.49,84.49,0,0,0,3.36-7.76,91.24,91.24,0,0,0,5.63-22.84c4-32.26-11.3-63.88-35.58-84.63-30.45-26-70.43-36-109.8-36.22-20.86-.13-41.77,2.42-62.2,6.55q-13.94,2.82-27.64,6.71c-8.08,2.28-15.58,2.57-23.94,2.87-8.53.32-17.06,1.35-24.5,5.82-11.62,7-1,25.23,10.64,18.21Z" class="cls-2"></path><path d="M790,705.65c0,29.77-85.08,53.89-190,53.89s-190-24.12-190-53.89" class="cls-4"></path><path d="M778,705.65c-.06,3,.08-.52.19-.48a13.28,13.28,0,0,1-.44,1.87c-.59,2.17-.54.49.31-.48a17,17,0,0,0-1.25,2.35c-.37.6-.91,1.18-1.22,1.8,1.42-2.81.67-.87-.23.11-1.32,1.44-2.81,2.65-4.24,4s1.85-1.24-.4.29c-.81.55-1.61,1.12-2.42,1.66-2.16,1.41-4.39,2.7-6.66,3.9s-4.46,2.27-6.74,3.3l-1.44.64c-1.7.76,1.65-.67-.12,0-1.55.64-3.11,1.25-4.69,1.85-27.3,10.28-56.77,15.15-85.69,18a643.31,643.31,0,0,1-112.92,1.15c-30.45-2.34-61.23-6.74-90.35-16.24q-4.77-1.56-9.47-3.35l-2.09-.82c-.26-.1-3-1.23-1.6-.64.72.3-2.58-1.17-3.37-1.54a96.15,96.15,0,0,1-13.6-7.75c-2.59-1.78.76.84-1-.78-.74-.66-1.5-1.28-2.22-2s-1.46-1.49-2.18-2.25c-2-2.05.53,1.13-.15-.12-.42-.79-1-1.56-1.45-2.33a7.37,7.37,0,0,0-.53-1c-.51-.6.66,2.68.45,1a8.9,8.9,0,0,0-.6-2.13c-.69-1.51.15,1.42.18,1.57a8.87,8.87,0,0,1-.09-1.63c-.26-15.42-24.27-15.47-24,0,.39,22.15,23.5,34.33,41.27,41.7,29.5,12.25,61.95,17.33,93.51,20.72a637.93,637.93,0,0,0,120.7,1.31c33.06-2.74,66.94-7.4,98.34-18.56,20.06-7.13,49.79-19.82,50.24-45.17.27-15.45-23.73-15.45-24,0Z" class="cls-2"></path><line y2="1175.94" x2="444.44" y1="900.22" x1="375.51" class="cls-1"></line><path d="M363.94,903.41l23.38,93.53,37,148,8.55,34.2c3.74,15,26.89,8.63,23.14-6.38l-23.38-93.53-37-148L387.08,897c-3.74-15-26.9-8.64-23.14,6.38Z" class="cls-2"></path><path d="M760.5,897l-23.38,93.53-37,148-8.55,34.2c-3.74,15,19.4,21.38,23.15,6.38l23.38-93.53,37-148,8.55-34.2c3.74-15-19.4-21.38-23.15-6.38Z" class="cls-2"></path><path d="M601.79,112.23S476.45,352.1,313.68,344.56C313.68,344.56,334,99.82,601.79,112.23Z" class="cls-2"></path><path d="M587,112.23S712.31,352.1,875.09,344.56C875.09,344.56,854.73,99.82,587,112.23Z" class="cls-2"></path><ellipse ry="99.92" rx="49.53" cy="487.65" cx="453.85" class="cls-6"></ellipse><path d="M491.38,487.65c-.07,18-2.33,35.78-8.08,52.84-4.14,12.29-9.92,23.73-19.62,31.54,2-1.62-.86.5-1.51.9-1.05.65-2.15,1.19-3.25,1.75,2.57-1.31-.45.1-1.33.35-.55.15-1.16.24-1.7.42-2.35.77,2.19.17-.28.06a34.44,34.44,0,0,0-3.52,0c-2,.09.09,0,.59.1-.57-.13-1.16-.19-1.72-.36-1.14-.33-2.26-.67-3.38-1.07,2.85,1-1.24-.75-2.05-1.25-.65-.4-3.53-2.52-1.51-.9-1.06-.85-2.07-1.75-3-2.69s-2-2-2.93-3.07c-.49-.55-1-1.11-1.42-1.68,1.44,1.76-.8-1.1-.87-1.2a87.78,87.78,0,0,1-9.43-17.55c-12.71-32.83-13.47-71.76-3.68-105.44a97.33,97.33,0,0,1,7.71-19.65c3.5-6.61,5.88-10.13,10.25-14.43a43,43,0,0,1,3.41-3.06c-2,1.59.88-.52,1.51-.9,1.06-.64,2.15-1.19,3.25-1.75-2.44,1.24.79-.2,1.75-.46.57-.15,1.15-.23,1.71-.39,1.63-.45-2.27.11-.58.06,1.3,0,2.65,0,3.95,0,.76,0,2.11.54-.59-.1.58.13,1.16.19,1.72.36s4,1.36,2.78.82c-1.54-.66.27.16.63.36.67.38,1.36.74,2,1.14s1.05.72,1.6,1c2.25,1.32-1.14-1.15.68.51,1.28,1.16,2.56,2.29,3.75,3.54.5.52,1,1.05,1.45,1.58.17.2,2,2.39,1.18,1.35s.61.83.78,1.06c.56.8,1.12,1.6,1.66,2.42,1.12,1.7,2.17,3.45,3.16,5.23a86.84,86.84,0,0,1,4.68,9.72c7.37,18.75,10.19,38.79,10.27,58.85.07,15.44,24.07,15.47,24,0-.09-21.31-2.87-43.23-10.37-63.27-5.95-15.88-14.5-31.55-28.74-41.43A39.2,39.2,0,0,0,435,380.71c-14.78,7.9-24,23.58-30.28,38.53C388.81,457.42,388,504.8,400.36,544.1c8.45,26.94,31.79,66.19,66.14,53.22,17.06-6.44,28.24-22.21,35.24-38.4,9.71-22.43,13.54-46.93,13.64-71.27C515.45,472.2,491.45,472.18,491.38,487.65Z" class="cls-2"></path><ellipse ry="99.92" rx="49.53" cy="487.65" cx="728.45" class="cls-6"></ellipse><path d="M766,487.65c-.08,18-2.34,35.78-8.09,52.84-4.14,12.29-9.92,23.73-19.61,31.54,2-1.62-.86.5-1.51.9-1.06.65-2.16,1.19-3.26,1.75,2.58-1.31-.45.1-1.32.35-.55.15-1.17.24-1.71.42-2.35.77,2.19.17-.28.06a34.24,34.24,0,0,0-3.51,0c-2.06.09.08,0,.58.1-.57-.13-1.16-.19-1.72-.36-1.14-.33-2.26-.67-3.38-1.07,2.85,1-1.24-.75-2-1.25-.65-.4-3.52-2.52-1.51-.9-1-.85-2.07-1.75-3-2.69s-2-2-2.93-3.07c-.48-.55-.95-1.11-1.42-1.68,1.45,1.76-.8-1.1-.87-1.2a87.2,87.2,0,0,1-9.42-17.55c-12.71-32.83-13.47-71.76-3.69-105.44A97.93,97.93,0,0,1,705,420.75c3.5-6.61,5.87-10.13,10.24-14.43a44.85,44.85,0,0,1,3.41-3.06c-2,1.59.89-.52,1.51-.9,1.06-.64,2.15-1.19,3.26-1.75-2.45,1.24.78-.2,1.75-.46.56-.15,1.15-.23,1.71-.39,1.62-.45-2.28.11-.59.06,1.3,0,2.65,0,4,0,.76,0,2.11.54-.58-.1.57.13,1.15.19,1.72.36s4,1.36,2.77.82c-1.53-.66.27.16.63.36.67.38,1.36.74,2,1.14s1.05.72,1.59,1c2.26,1.32-1.14-1.15.69.51,1.27,1.16,2.55,2.29,3.74,3.54.5.52,1,1.05,1.45,1.58.18.2,2,2.39,1.18,1.35s.61.83.78,1.06c.56.8,1.12,1.6,1.66,2.42,1.12,1.7,2.17,3.45,3.17,5.23a88.39,88.39,0,0,1,4.67,9.72c7.38,18.75,10.19,38.79,10.28,58.85.06,15.44,24.06,15.47,24,0-.09-21.31-2.88-43.23-10.38-63.27-5.94-15.88-14.5-31.55-28.73-41.43a39.21,39.21,0,0,0-41.25-2.24c-14.78,7.9-24,23.58-30.28,38.53C663.42,457.42,662.64,504.8,675,544.1c8.44,26.94,31.78,66.19,66.13,53.22,17.06-6.44,28.24-22.21,35.25-38.4,9.7-22.43,13.53-46.93,13.64-71.27C790.05,472.2,766.05,472.18,766,487.65Z" class="cls-2"></path><ellipse ry="72.59" rx="25.36" cy="481.01" cx="478.03" class="cls-2"></ellipse><ellipse ry="72.59" rx="27.37" cy="481.01" cx="750.59" class="cls-2"></ellipse><path d="M562.19,628.37a54.2,54.2,0,0,0,62,10.83c7.78-3.65,14.14-9.84,20.33-15.68,11.25-10.62-5.74-27.57-17-17-4.3,4.06-8.4,8.18-13.63,11a29.4,29.4,0,0,1-11.69,2.92c-8.91.25-16.81-2.65-23.05-9.09-10.77-11.11-27.73,5.87-17,17Z" class="cls-2"></path><path d="M452.67,310.56c9.64.85,17.91,7.48,21.92,16.59,2.55,5.79,11,7.14,16,4.2,6-3.49,6.76-10.21,4.2-16-7.37-16.75-24.42-26.63-42.15-28.19-6.31-.55-11.72,5.78-11.72,11.72,0,6.8,5.39,11.16,11.72,11.71Z" class="cls-2"></path><path d="M727.32,287.13c-17.73,1.56-34.78,11.44-42.15,28.19-2.55,5.79-1.7,12.58,4.2,16,5,2.91,13.47,1.62,16-4.2,4-9.11,12.26-15.74,21.92-16.59,6.3-.55,11.71-5,11.71-11.71,0-5.91-5.37-12.27-11.71-11.72Z" class="cls-2"></path><path d="M579.77,121.62s26.41-52.74,84.61-58.2C664.38,63.42,662.49,125.26,579.77,121.62Z" class="cls-2"></path><path d="M560.93,53.9s49,40.15,41.66,67.87C602.59,121.77,538.62,87.05,560.93,53.9Z" class="cls-2"></path><path d="M990.22,717.71V787a12,12,0,0,1-12,12H210a12,12,0,0,1-12-12V717.71a12,12,0,0,1,12-12H978.22a11.77,11.77,0,0,1,6.06,1.66A12,12,0,0,1,990.22,717.71Z" class="cls-1"></path><path d="M978.22,717.71v45c0,7.43-.13,14.87,0,22.3a15.61,15.61,0,0,1,0,1.81c0,.16.08.43.08-.14,0-1-.88,1.24-.17.6,1.5-1.35-.48.06-.36.12-.19-.1,1.27-.76,1.05-.6-.41.3-2.09.19-.6.19H978c-9.7.59-19.61,0-29.32,0H244.06c-11.07,0-22.15.06-33.23,0h-.75c-.35,0,.64.14.55.15-.52.08-1.85-.93-.61-.16s-.94,0-.43-.45c.12-.11.51.75.51.75.48.43-.15-1.78-.09-.29-.19-4.92,0-9.87,0-14.79,0-17.48.3-35,0-52.47a15.61,15.61,0,0,1,0-1.81c0-.16-.08-.44-.08.14,0,1,.88-1.24.17-.6-1.32,1.19.79.12.36-.12.19.1-1.26.76-1.05.59s1.84-.26.91-.26c-.55,0-.41.08-.29.08h.2c.94-.06,1.89,0,2.83,0H977.28a3.75,3.75,0,0,1,.82,0h.12c.17,0-1.72-.5-.24-.21,0,0,.31,1.34.24.21.39,6.47,5.24,12,12,12,6.2,0,12.4-5.5,12-12-.81-13.49-10.57-23.59-24.29-24-1,0-2,0-3,0H249.33c-12.55,0-25.09-.08-37.64,0-15.18.1-25.68,11-25.68,26.16v53.52c0,5.91-.57,12.2.49,18.05,2.11,11.59,12.35,19.15,23.8,19.51,3.08.1,6.19,0,9.28,0h752c2.21,0,4.43.09,6.63,0,14.65-.61,24-12,24-26.16V717.71C1002.22,702.27,978.22,702.24,978.22,717.71Z" class="cls-2"></path><path d="M938.25,230.8a9.51,9.51,0,0,0-9.48-9.48H493.83a9.51,9.51,0,0,0-9.48,9.48V420.62a9.37,9.37,0,0,0,1.51,5.1H936.74a9.37,9.37,0,0,0,1.51-5.1Z" class="cls-7"></path><path d="M600,35C353,35,152.74,235.24,152.74,482.26a445.15,445.15,0,0,0,67.46,236.3H972.7a11.79,11.79,0,0,1,6.06,1.66,445,445,0,0,0,68.5-238C1047.26,235.24,847,35,600,35ZM878.06,669.51a8.92,8.92,0,0,0-4.55-1.24H309.39a333.73,333.73,0,0,1-50.57-177.15c0-185.18,150.12-335.3,335.29-335.3s335.3,150.12,335.3,335.3A333.66,333.66,0,0,1,878.06,669.51Z" class="cls-1"></path><path d="M600,23.61A458.63,458.63,0,0,0,198.57,704.24q4.43,8,9.18,15.82c3.09,5.07,5.89,9.51,12.47,9.88.39,0,.77,0,1.15,0,21,.52,42.07,0,63.06,0H969.79c.87,0,2.4-.31,3.22.1,5.61,2.86,12.15,1.38,15.57-4.08A458.54,458.54,0,0,0,623.18,24.2q-11.58-.59-23.19-.59c-14.64,0-14.67,22.75,0,22.77a436.8,436.8,0,0,1,401.77,266.3c22.37,52.75,34,111.13,34.11,168.87a435.81,435.81,0,0,1-53.43,210Q976,703.2,968.93,714.47l15.57-4.08c-9-4.61-20.24-3.22-30.12-3.22H251.18c-9.86,0-19.87-.5-29.71,0-.43,0-.85,0-1.27,0l9.82,5.64A435.73,435.73,0,0,1,577.5,46.93c7.5-.37,15-.54,22.49-.55C614.64,46.36,614.67,23.59,600,23.61Z" class="cls-2"></path><path d="M883.8,659.68c-7.6-3.66-15.72-2.8-23.93-2.8H332.6c-7.35,0-14.9-.5-22.24,0-.32,0-.65,0-1,0l9.83,5.64a327.3,327.3,0,0,1-28.6-284.95c28.9-78,89-143,164.51-179.16,77.76-37.27,169.82-41.09,251.28-11.25,78.13,28.62,143.35,88.43,179.84,163.78a324.25,324.25,0,0,1,31.36,123.32c2.62,52.92-7.39,106.42-30.1,154.39a342.86,342.86,0,0,1-19.28,35.12c-7.8,12.45,11.89,23.89,19.66,11.49,52.24-83.42,66.7-187.69,38.86-282.13-23.31-79.07-75.19-148.12-144.22-193-71.44-46.5-158.66-64.24-242.72-51.34-81.16,12.46-156.92,55.3-209.9,118-54.63,64.61-84.37,147.77-82.38,232.44a348.34,348.34,0,0,0,39.58,153.13q4.26,8.13,9,16c3.3,5.52,6.07,10.93,13.34,11.33.55,0,1.1,0,1.65,0,3.28.06,6.57,0,9.85,0H869.3a24.25,24.25,0,0,0,3.19,0c1.08-.14,1.47.49-.18-.31,5.54,2.67,12.3,1.52,15.58-4.08C890.8,670.27,889.36,662.36,883.8,659.68Z" class="cls-2"></path><rect rx="10.33" height="250.39" width="74.37" y="332.98" x="109.29" class="cls-1"></rect><path d="M173.33,571.38H125.08c-1.39,0-3.28-.37-4.62,0-.25.07-.56-.08-.82,0a2,2,0,0,1,1.19.42c.7,1.23-1.24-.58,0,0s-.06,1.6.43.8a5.78,5.78,0,0,0,0-1.81V354.48c0-3.29.85-7.89,0-11.11,0,0-.16,1-.43,1.16-1.35.64.11-.28.39-.44-.48.28-.87,1.13-1.63.89a10.61,10.61,0,0,0,2.7,0h44.9c1.47,0,4,.47,5.39,0a3.47,3.47,0,0,1,.72,0,1.82,1.82,0,0,1-1.21-.42c-1.24-1.57,1.71.93,0,0-1.16-.64.07-1.54-.43-.75s0,3.56,0,4.45V556.3c0,5-.72,10.66,0,15.64a6.79,6.79,0,0,0,0,1c.07,0,.13-.3.11-.56,0,.42,1.22-3.51-.07-.11a1.86,1.86,0,0,1,1.63-.9c-6.47.4-12,5.22-12,12,0,6.18,5.5,12.4,12,12,12.53-.79,21.86-9.68,22.33-22.43.05-1.3,0-2.61,0-3.91V383.61c0-13.39.5-26.9,0-40.29A22.79,22.79,0,0,0,173.23,321c-4-.14-8.07,0-12.09,0H122.32c-14.13,0-24.83,9-25,23.6-.08,5.91,0,11.83,0,17.74V523.84c0,16.08-.29,32.18,0,48.25.11,6.56,2.2,12.49,7,17.16,5.35,5.2,12.28,6.13,19.32,6.13h49.73C188.77,595.38,188.8,571.38,173.33,571.38Z" class="cls-2"></path><rect rx="5.09" height="140.92" width="32.03" y="387.72" x="77.26" class="cls-1"></rect><path d="M104.2,516.64h-17a28.37,28.37,0,0,0-3.45,0,7,7,0,0,0-1.12,0c2.26-.65,7.69,3.57,6.68,6.9a7.07,7.07,0,0,0,0-1.38c.51-8.3,0-16.8,0-25.11V399.5c0-1.93.46-4.54,0-6.44.52,2.13-2,4.64-4.44,5.65-4,1.68-2.29.91-.57,1,3.32.2,6.7,0,10,0,2.78,0,5.81.35,8.58,0a7,7,0,0,0,1.12,0c-2.26.65-7.7-3.57-6.68-6.9-.05.14,0,.33,0,.47-.45,2.28,0,5.13,0,7.44v117c0,1.45-.09,2.94,0,4.39.29,4.59.83-4.7,3.72-5.09-6.43.87-9.93,9.11-8.38,14.76,1.91,6.93,8.31,9.25,14.76,8.38,15.5-2.1,13.9-18.66,13.9-30V468.59c0-24.89.74-49.92,0-74.8-.31-10.25-7.21-17.66-17.6-18.07-6.61-.26-13.38-.22-20,0-10.37.35-18,6.88-18.44,17.57-.13,2.91,0,5.84,0,8.75v87.32c0,11-.3,22,0,33s7.6,17.94,18.44,18.27c6.82.2,13.68,0,20.5,0C119.64,540.64,119.67,516.64,104.2,516.64Z" class="cls-2"></path><rect rx="10.54" height="130.25" width="220.14" y="907.83" x="469.7" class="cls-8"></rect><path d="M679.31,1026.08H482.55c-.4,0-1.58-.22-1.89,0s1.54,1.72.2,0c1,1.3.45,1.85.84.75.34-1,0-2.73,0-3.72v-35.3c0-23.06.48-46.16,0-69.21,0-.25-.12-.72-.1.41,0,.75-2.14,1.6.14,0-.56.39-.69.86-1.5.85a4.92,4.92,0,0,1,.94,0c2,.41,4.55,0,6.6,0H673.33c1.06,0,4.68.62,5.56,0,.54-.38-.24-.26-1.08-.85,2,1.38,0,.54,0-.56a5.41,5.41,0,0,1,0,.9c-.67,2.95,0,6.89,0,9.9v95.41c0,.33-.27,2.38,0,2.61,0,0,.14,1.6.1-.3l.29-.51c.76-.67.61-.5-.43.5.13-.57,1-.82,1.5-.85-6.47.4-12,5.22-12,12,0,6.18,5.5,12.41,12,12,12.82-.8,22.14-10,22.54-23,.09-3.06,0-6.13,0-9.19V931.84c0-12.41,1.26-25.83-11.54-33.13-6.6-3.77-14.85-2.88-22.17-2.88H540.78c-19.86,0-39.75-.35-59.6,0-8.51.15-16.29,4-20.6,11.54C458,912,457.7,916.94,457.7,922V1005c0,7.91-.5,16,.09,23.9.91,12.2,10.69,20.82,22.69,21.22,1.91.06,3.83,0,5.74,0H679.31C694.75,1050.08,694.78,1026.08,679.31,1026.08Z" class="cls-2"></path><polyline points="524.56 920.88 524.56 972.95 600 972.95 600 1025.54" class="cls-8"></polyline><path d="M518.56,920.88V973a6.08,6.08,0,0,0,6,6H600l-6-6v52.59c0,7.72,12,7.74,12,0V973a6.09,6.09,0,0,0-6-6H524.56l6,6V920.88c0-7.72-12-7.74-12,0Z" class="cls-2"></path><circle r="19.35" cy="948.08" cx="646.12" class="cls-9"></circle><rect transform="translate(-138.89 52.21) rotate(-7.59)" rx="12" height="54.76" width="202.88" y="1045.69" x="222.68" class="cls-10"></rect><path d="M416.4,1076.39l-84.21,11.23c-30.8,4.1-61.58,8.84-92.46,12.31l-.63.09c-1,.11-1.51,0-1.56.09-.7.86-.76-.78-.18-.08.89,1.07,0,.55-.16-.47.31,2.23.49,2.57.19.56s-.51-3.83-.76-5.74c-1-7.87-2.75-15.92-3.14-23.86,0-.22.27-1.74-.09-.85-.59,1.41,1.42-1.55-.64,0-.26.2-1.39.21-.33,0,1.23-.23,2.5-.33,3.73-.49l16.53-2.21,117.09-15.6,37.35-5c.68-.09,1.35-.19,2-.27,1.95-.21.39.17,2.2.09-1.48.07-.58-1.58-.31.37-.37-2.62-.41-2.16-.13-.06,1.18,8.86,2.45,17.71,3.55,26.58.13,1.08.28,2.13.34,3.22-.07-1.27-.61,1.73,0,.16.42-1,.88.46,0,0-.07,0-.93.23-1.62.36-6.37,1.23-10,8.87-8.38,14.76,1.83,6.66,8.37,9.62,14.76,8.39a24.17,24.17,0,0,0,19.19-23c.06-3.41-.71-6.91-1.16-10.27l-2.11-15.79c-.61-4.59-.85-9.52-2.58-13.81-4.25-10.57-15-16.18-26-14.7l-15.66,2.08L267.12,1041l-34.81,4.64c-14,1.87-24.34,12.72-22.52,27.37,1.13,9.17,2.44,18.33,3.66,27.5,1.11,8.33,4.21,15.72,11.8,20.2a24,24,0,0,0,14.42,3.19c4-.39,8.07-1.07,12.09-1.61l54.9-7.31,107.7-14.35,2-.28c6.42-.85,12-4.9,12-12C428.4,1082.58,422.87,1075.53,416.4,1076.39Z" class="cls-2"></path><rect rx="12" height="54.76" width="202.88" y="1130.47" x="689.85" class="cls-10"></rect><path d="M880.73,1173.23H734.61c-10.72,0-21.59.52-32.3,0h-.46c1.77,0-2-.39.23.2.82.22-.66-1.26-.44-.43.43,1.59,0,.2.05-.39-.2,1.45.14-.78.16-1.22.07-2,0-4,0-6v-20.82c0-.54-.36-2.88-.16-1.49-.07-.52.93-1.85.16-.61s0-.94.45-.43c.16.18-1.2.72-1,.6.41-.29,2.09-.18.6-.18h.46c1.23-.06,2.48,0,3.72,0H841.42c12.48,0,25,.24,37.48,0,.61,0,1.22,0,1.83,0-.91,0-.85-.84.59.18,0,0-1.37-.4-1.05-.6.62-.37.9,2.1.45.43-.33-1.21.33-.12.16.61.28-1.19-.14.55-.15,1.22-.18,9-.28,18.09,0,27.08,0,.61.44,2.5.15,1.22.1.44-.8,1.41-.25.91s1-.62.08-.31c-1.17.41,0,.3.31-.08.51-.57-2,.19-.29.1-6.48.35-12,5.26-12,12,0,6.22,5.49,12.35,12,12,11-.6,20.48-7.32,23.29-18.24,1-4,.71-8.28.71-12.32,0-9.32,1.17-19.48-.5-28.69-2.26-12.45-13.34-19.42-25.33-19.51-5,0-10,0-15,0H738.66c-12.08,0-24.21-.32-36.29,0-14.23.38-24.35,11-24.52,25.17-.12,9.24-.08,18.5,0,27.75.12,14.25,9.71,25.4,24.35,25.84,3.78.11,7.58,0,11.37,0H880.73C896.17,1197.23,896.2,1173.23,880.73,1173.23Z" class="cls-2"></path><circle r="17.56" cy="173.38" cx="146.47" class="cls-10"></circle><path d="M158,173.38c-.57,15-23.12,14.89-23.12,0s22.55-15,23.12,0c.3,7.7,12.3,7.74,12,0-.49-12.82-10.38-23.51-23.56-23.56a23.56,23.56,0,0,0,0,47.12c13.18,0,23.07-10.77,23.56-23.56C170.33,165.66,158.33,165.67,158,173.38Z" class="cls-2"></path><g class="cls-11"><path d="M878.05,670.37a8.85,8.85,0,0,0-4.54-1.24H309.38A333.81,333.81,0,0,1,258.82,492c0-185.18,150.11-335.3,335.29-335.3S929.41,306.8,929.41,492A333.58,333.58,0,0,1,878.05,670.37Z" class="cls-12"></path><path d="M883.8,660.54c-7.61-3.66-15.72-2.8-23.93-2.8H332.6c-7.35,0-14.9-.5-22.24,0-.32,0-.65,0-1,0l9.83,5.64a327.33,327.33,0,0,1-28.59-284.95c28.9-78,89-143,164.51-179.16C532.89,162,624.94,158.18,706.41,188c78.13,28.62,143.35,88.43,179.83,163.78a324.08,324.08,0,0,1,31.37,123.32c2.62,52.92-7.39,106.42-30.1,154.39a342.86,342.86,0,0,1-19.28,35.12c-7.8,12.45,11.89,23.89,19.65,11.49,52.25-83.42,66.7-187.69,38.87-282.13-23.31-79.07-75.19-148.12-144.22-193-71.44-46.5-158.66-64.24-242.72-51.34-81.16,12.46-156.92,55.3-209.9,118C275.28,332.18,245.54,415.34,247.53,500a348.2,348.2,0,0,0,39.58,153.13q4.26,8.13,9,16c3.3,5.52,6.07,10.93,13.34,11.33.55,0,1.1,0,1.65,0,3.28.06,6.57,0,9.85,0H869.3a24.25,24.25,0,0,0,3.19,0c1.07-.14,1.47.49-.18-.31,5.53,2.67,12.3,1.52,15.57-4.08C890.8,671.13,889.36,663.22,883.8,660.54Z" class="cls-2"></path></g></svg>